<?xml version="1.0" encoding="UTF-8" standalone="no"?><!DOCTYPE svg PUBLIC "-//W3C//DTD SVG 1.1//EN" "http://www.w3.org/Graphics/SVG/1.1/DTD/svg11.dtd"><svg width="100%" height="100%" viewBox="0 0 424 424" version="1.1" xmlns="http://www.w3.org/2000/svg" xmlns:xlink="http://www.w3.org/1999/xlink" xml:space="preserve" xmlns:serif="http://www.serif.com/" style="fill-rule:evenodd;clip-rule:evenodd;stroke-linejoin:round;stroke-miterlimit:2;"><path d="M352.638,0l-282.109,0c-18.711,0 -36.645,7.43 -49.877,20.657c-13.224,13.226 -20.652,31.165 -20.652,49.87l-0,282.109c-0,18.705 7.428,36.644 20.652,49.87c13.232,13.227 31.166,20.657 49.877,20.657l282.109,0c18.702,0 36.637,-7.43 49.869,-20.657c13.223,-13.226 20.652,-31.165 20.652,-49.87l-0,-282.109c-0,-18.705 -7.429,-36.644 -20.652,-49.87c-13.232,-13.227 -31.167,-20.657 -49.869,-20.657Zm-39.967,155.395l-107.437,141.054c-2.193,2.845 -5,5.151 -8.223,6.74c-3.222,1.59 -6.76,2.42 -10.353,2.429c-3.565,0.019 -7.094,-0.775 -10.316,-2.323c-3.214,-1.548 -6.039,-3.808 -8.25,-6.61l-57.37,-73.114c-1.895,-2.439 -3.294,-5.228 -4.116,-8.208c-0.821,-2.979 -1.047,-6.092 -0.667,-9.159c0.388,-3.067 1.372,-6.029 2.897,-8.716c1.525,-2.688 3.565,-5.048 6.002,-6.948c4.928,-3.834 11.174,-5.554 17.366,-4.782c3.069,0.381 6.03,1.363 8.719,2.891c2.69,1.526 5.046,3.567 6.951,6.006l38.315,48.899l88.861,-117.545c1.887,-2.471 4.243,-4.545 6.923,-6.106c2.69,-1.561 5.651,-2.578 8.729,-2.993c3.077,-0.415 6.209,-0.22 9.215,0.576c2.997,0.794 5.813,2.172 8.286,4.056c2.473,1.883 4.54,4.234 6.102,6.919c1.561,2.685 2.581,5.651 2.996,8.729c0.415,3.079 0.217,6.208 -0.577,9.21c-0.795,3.003 -2.176,5.82 -4.053,8.29l-0,0.705Z" style="fill:url(#_Linear1);fill-rule:nonzero;"/><defs><linearGradient id="_Linear1" x1="0" y1="0" x2="1" y2="0" gradientUnits="userSpaceOnUse" gradientTransform="matrix(-381.949,381.739,-381.739,-381.949,401.926,20.0828)"><stop offset="0" style="stop-color:#6abe55;stop-opacity:1"/><stop offset="1" style="stop-color:#318f1a;stop-opacity:1"/></linearGradient></defs></svg>