<svg xmlns="http://www.w3.org/2000/svg" xml:space="preserve" style="fill-rule:evenodd;clip-rule:evenodd;stroke-linejoin:round;stroke-miterlimit:2" viewBox="0 0 1492 562"><path d="M399.988 489.309h6.561c1.673 0 3.03 1.357 3.03 3.03v2.347c0 2.73 3.309 4.048 5.216 2.092a26.9984 26.9984 0 0 1 4.072-3.426c3.922-2.695 9.147-4.043 15.67-4.043 4.158 0 7.987.805 11.486 2.411 3.496 1.608 6.498 3.949 9.004 7.02 2.504 3.073 4.443 6.854 5.814 11.344 1.369 4.491 2.057 9.621 2.057 15.385v33.13c0 1.674-1.357 3.03-3.03 3.03h-7.979c-1.674 0-3.03-1.356-3.03-3.03v-33.271c0-5.482-.758-7.87-2.269-11.038-1.513-3.166-3.261-5.576-5.247-7.232-1.21-1.007-2.429-1.788-3.658-2.34-.786-.353-1.575-.613-2.369-.779-2.033-.426-3.569-.639-4.608-.639-2.081 0-4.279.546-6.594 1.631-2.318 1.088-4.445 2.648-6.381 4.68-1.939 2.034-3.545 4.538-4.822 7.516-1.275 2.978-1.914 4.421-1.914 8.201v33.271c0 1.674-1.357 3.03-3.03 3.03h-7.979c-1.673 0-3.03-1.356-3.03-3.03v-66.26c0-1.673 1.357-3.03 3.03-3.03M484.593 525.47c0 2.931.567 5.742 1.701 8.437 1.135 2.695 2.67 5.082 4.609 7.161 1.937 2.08 4.23 3.712 6.878 4.892 2.645 1.184 5.435 1.773 8.366 1.773 3.025 0 5.837-.615 8.437-1.844 2.599-1.227 4.868-2.858 6.807-4.892 1.937-2.032 3.475-4.395 4.608-7.09 1.135-2.695 1.702-5.506 1.702-8.437 0-3.025-.567-5.861-1.702-8.509-1.133-2.646-2.694-5.01-4.679-7.09-1.985-2.078-4.278-3.709-6.877-4.892-2.601-1.181-5.367-1.773-8.296-1.773-2.931 0-5.721.592-8.366 1.773-2.648 1.183-4.941 2.814-6.878 4.892-1.939 2.08-3.474 4.444-4.609 7.09-1.134 2.648-1.701 5.484-1.701 8.509m20.845-36.16c5.482 0 10.256.97 14.322 2.907 1.75.834 3.35 1.882 4.802 3.146 1.428 1.243 3.447.802 4.418-.541.35-.486.565-1.089.565-1.773v-.71c0-1.672 1.357-3.029 3.03-3.029h6.135c1.673 0 3.03 1.357 3.03 3.029V558.6c0 1.673-1.357 3.03-3.03 3.03h-6.135c-1.673 0-3.03-1.357-3.03-3.03v-1.223c0-2.622-3.084-3.957-5.048-2.221a23.3295 23.3295 0 0 1-4.95 3.354c-4.112 2.08-8.912 3.12-14.393 3.12-4.632 0-9.029-.969-13.187-2.908-4.161-1.937-7.823-4.559-10.99-7.87-3.168-3.308-5.672-7.136-7.516-11.486-1.843-4.347-2.765-8.98-2.765-13.896 0-4.915.922-9.548 2.765-13.897 1.844-4.348 4.348-8.176 7.516-11.486 3.167-3.309 6.853-5.932 11.06-7.87 4.205-1.937 8.673-2.907 13.401-2.907M552.429 489.309h8.108c1.189 0 2.269.696 2.76 1.78l22.745 47.257c1.077 2.377 4.457 2.37 5.524-.013l22.632-47.232a3.0304 3.0304 0 0 1 2.766-1.792h8.099c2.198 0 3.665 2.269 2.762 4.274l-30.971 66.26a3.0313 3.0313 0 0 1-2.764 1.786h-10.829c-1.192 0-2.274-.699-2.763-1.786l-30.832-66.26c-.902-2.005.565-4.274 2.763-4.274M641.992 525.47c0 2.931.568 5.742 1.703 8.437 1.133 2.695 2.67 5.082 4.608 7.161 1.937 2.08 4.229 3.712 6.878 4.892 2.645 1.184 5.434 1.773 8.366 1.773 3.024 0 5.836-.615 8.437-1.844 2.599-1.227 4.868-2.858 6.806-4.892 1.937-2.032 3.475-4.395 4.609-7.09 1.135-2.695 1.702-5.506 1.702-8.437 0-3.025-.567-5.861-1.702-8.509-1.134-2.646-2.694-5.01-4.679-7.09-1.985-2.078-4.278-3.709-6.878-4.892-2.601-1.181-5.366-1.773-8.295-1.773-2.932 0-5.721.592-8.366 1.773-2.649 1.183-4.941 2.814-6.878 4.892-1.938 2.08-3.475 4.444-4.608 7.09-1.135 2.648-1.703 5.484-1.703 8.509m20.845-36.16c5.482 0 10.257.97 14.323 2.907 1.749.834 3.35 1.882 4.801 3.146 1.412 1.228 3.4.812 4.383-.494.372-.494.6-1.113.6-1.82v-.71c0-1.672 1.357-3.029 3.03-3.029h6.136c1.673 0 3.03 1.357 3.03 3.029V558.6c0 1.673-1.357 3.03-3.03 3.03h-6.136c-1.673 0-3.03-1.357-3.03-3.03v-1.223c0-2.622-3.084-3.957-5.047-2.221a23.3295 23.3295 0 0 1-4.95 3.354c-4.112 2.08-8.912 3.12-14.393 3.12-4.633 0-9.029-.969-13.188-2.908-4.16-1.937-7.823-4.559-10.99-7.87-3.168-3.308-5.671-7.136-7.515-11.486-1.844-4.347-2.765-8.98-2.765-13.896 0-4.915.921-9.548 2.765-13.897 1.844-4.348 4.347-8.176 7.515-11.486 3.167-3.309 6.854-5.932 11.061-7.87 4.205-1.937 8.673-2.907 13.4-2.907M706.796 499.751v-7.411c0-1.673 1.356-3.03 3.03-3.03h4.859c1.672 0 3.03-.648 3.03-2.321v-10.647a3.03 3.03 0 0 1 1.919-2.82l7.979-3.143c1.988-.784 4.14.682 4.14 2.819v13.791c0 1.673 1.357 2.321 3.03 2.321h24.569c1.674 0 3.03 1.357 3.03 3.03v7.411c0 1.674-1.356 3.03-3.03 3.03h-24.569c-1.673 0-3.03 1.357-3.03 3.03v31.854c0 3.309 1.039 5.909 3.119 7.799 2.079 1.893 4.773 2.836 8.084 2.836 1.794 0 3.663-.33 5.601-.993 1.23-.419 2.415-1.011 3.551-1.776 1.186-.798 2.772-.636 3.791.365l4.089 4.022c1.307 1.284 1.195 3.437-.258 4.552-2.056 1.577-4.291 3.018-6.707 4.323-3.498 1.893-7.373 2.837-11.627 2.837-3.215 0-6.264-.616-9.146-1.844-2.886-1.227-5.389-2.908-7.516-5.034-2.128-2.127-3.829-4.701-5.105-7.728-1.277-3.024-1.914-6.287-1.914-9.785v-31.428c0-1.673-1.358-3.03-3.03-3.03h-4.859c-1.674 0-3.03-1.356-3.03-3.03M776.279 525.47c0 3.119.567 6.026 1.702 8.72 1.134 2.694 2.67 5.034 4.609 7.019 1.936 1.986 4.229 3.571 6.877 4.751 2.646 1.184 5.435 1.773 8.367 1.773 3.024 0 5.836-.589 8.437-1.773 2.598-1.18 4.867-2.765 6.806-4.751 1.937-1.985 3.475-4.325 4.608-7.019 1.135-2.694 1.702-5.601 1.702-8.72 0-3.025-.567-5.886-1.702-8.58-1.133-2.694-2.671-5.034-4.608-7.019-1.939-1.986-4.208-3.567-6.806-4.75-2.601-1.181-5.413-1.773-8.437-1.773-2.932 0-5.721.592-8.367 1.773-2.648 1.183-4.941 2.764-6.877 4.75-1.939 1.985-3.475 4.325-4.609 7.019-1.135 2.694-1.702 5.555-1.702 8.58m21.555-36.018c4.913 0 9.522.946 13.826 2.835 4.3 1.892 8.058 4.467 11.272 7.729 3.213 3.261 5.744 7.068 7.587 11.415 1.844 4.35 2.765 9.029 2.765 14.039 0 5.012-.921 9.713-2.765 14.108-1.843 4.397-4.374 8.226-7.587 11.487-3.214 3.261-6.972 5.838-11.272 7.728-4.304 1.893-8.913 2.837-13.826 2.837-4.917 0-9.526-.944-13.826-2.837-4.303-1.89-8.061-4.467-11.274-7.728-3.215-3.261-5.743-7.09-7.587-11.487-1.843-4.395-2.764-9.096-2.764-14.108 0-5.01.921-9.689 2.764-14.039 1.844-4.347 4.372-8.154 7.587-11.415 3.213-3.262 6.971-5.837 11.274-7.729 4.3-1.889 8.909-2.835 13.826-2.835" style="fill:#00001d;fill-rule:nonzero"/><path d="M864.012 549.296h29.142v11.235h-43.279V475.66h14.137v73.636ZM890.301 526.582c0-6.757 1.426-12.74 4.279-17.951 2.852-5.21 6.737-9.26 11.656-12.15 4.919-2.89 10.355-4.335 16.307-4.335 5.374 0 10.065 1.038 14.075 3.114 4.009 2.076 7.213 4.66 9.61 7.754v-9.769h14.261v67.286h-14.261v-10.014c-2.397 3.175-5.663 5.821-9.796 7.938-4.134 2.116-8.846 3.175-14.137 3.175-5.87 0-11.243-1.486-16.121-4.458-4.877-2.971-8.742-7.123-11.594-12.455-2.853-5.333-4.279-11.377-4.279-18.135Zm55.927.245c0-4.641-.971-8.671-2.914-12.09-1.943-3.419-4.485-6.024-7.626-7.815-3.142-1.791-6.531-2.687-10.169-2.687-3.637 0-7.027.875-10.168 2.626-3.142 1.75-5.684 4.314-7.627 7.693-1.942 3.379-2.914 7.388-2.914 12.028 0 4.641.972 8.711 2.914 12.212 1.943 3.501 4.506 6.167 7.689 7.999 3.182 1.831 6.551 2.747 10.106 2.747 3.638 0 7.027-.895 10.169-2.686 3.141-1.791 5.683-4.417 7.626-7.877 1.943-3.46 2.914-7.51 2.914-12.15ZM983.306 503.258c2.398-3.256 5.684-5.922 9.859-7.998 4.174-2.076 8.825-3.114 13.95-3.114 6.035 0 11.491 1.424 16.369 4.274 4.878 2.849 8.722 6.899 11.533 12.15 2.81 5.251 4.216 11.255 4.216 18.012 0 6.758-1.406 12.802-4.216 18.135-2.811 5.332-6.676 9.484-11.595 12.455-4.919 2.972-10.354 4.458-16.307 4.458-5.291 0-9.982-1.018-14.074-3.053-4.093-2.035-7.337-4.641-9.735-7.816v9.77h-14.137v-90.366h14.137v33.093Zm41.542 23.324c0-4.64-.971-8.649-2.914-12.028-1.943-3.379-4.506-5.943-7.688-7.693-3.183-1.751-6.593-2.626-10.231-2.626-3.555 0-6.924.896-10.106 2.687-3.183 1.791-5.746 4.396-7.689 7.815-1.943 3.419-2.914 7.449-2.914 12.09 0 4.64.971 8.69 2.914 12.15 1.943 3.46 4.506 6.086 7.689 7.877 3.182 1.791 6.551 2.686 10.106 2.686 3.638 0 7.048-.916 10.231-2.747 3.182-1.832 5.745-4.498 7.688-7.999 1.943-3.501 2.914-7.571 2.914-12.212ZM1068.13 561.63c-5.373 0-10.189-.957-14.446-2.87-4.258-1.913-7.627-4.518-10.107-7.815-2.48-3.298-3.803-6.981-3.968-11.052h14.633c.248 2.849 1.632 5.231 4.154 7.144 2.521 1.913 5.683 2.87 9.486 2.87 3.968 0 7.048-.753 9.239-2.26 2.19-1.506 3.286-3.439 3.286-5.8 0-2.524-1.22-4.396-3.658-5.617-2.439-1.222-6.304-2.565-11.595-4.03-5.125-1.384-9.3-2.727-12.524-4.03-3.225-1.303-6.015-3.297-8.371-5.984-2.356-2.686-3.534-6.228-3.534-10.624 0-3.582 1.075-6.859 3.224-9.83 2.15-2.972 5.229-5.312 9.239-7.022 4.009-1.709 8.618-2.564 13.826-2.564 7.771 0 14.034 1.933 18.787 5.8 4.754 3.867 7.296 9.139 7.627 15.814h-14.137c-.248-3.012-1.488-5.414-3.72-7.205-2.232-1.791-5.25-2.686-9.053-2.686-3.72 0-6.572.692-8.556 2.076-1.984 1.384-2.976 3.216-2.976 5.495 0 1.791.661 3.297 1.984 4.518 1.322 1.222 2.935 2.178 4.836 2.87 1.901.692 4.712 1.567 8.432 2.626 4.961 1.302 9.032 2.625 12.215 3.968 3.183 1.344 5.932 3.318 8.246 5.923 2.315 2.605 3.514 6.065 3.597 10.38 0 3.826-1.075 7.245-3.225 10.258-2.149 3.012-5.187 5.373-9.114 7.082-3.927 1.71-8.536 2.565-13.827 2.565Z" style="fill:#075091;fill-rule:nonzero"/><path d="M0 391.99V50.395c0-3.269 1.635-4.986 4.905-5.149h115.5c52.15 0 94.083 15.693 125.799 47.082 31.715 31.225 47.573 74.139 47.573 128.742 0 54.603-15.858 97.599-47.573 128.988-31.552 31.224-73.485 46.837-125.799 46.837H4.905c-3.27 0-4.905-1.635-4.905-4.905Zm45.121-30.162h75.284c38.09 0 68.989-11.935 92.693-35.802 23.705-24.032 35.558-58.936 35.558-104.71 0-45.939-11.853-80.842-35.558-104.71-23.54-24.032-54.438-36.049-92.693-36.049H45.121v281.271Zm434.534 42.668c-39.072 0-70.623-12.261-94.655-36.783-23.868-24.686-35.803-59.834-35.803-105.445 0-45.776 11.935-80.761 35.803-104.956 24.032-24.359 55.583-36.538 94.655-36.538 39.236 0 70.788 12.179 94.656 36.538 24.032 24.195 36.048 59.18 36.048 104.956 0 45.611-12.016 80.759-36.048 105.445-23.868 24.522-55.42 36.783-94.656 36.783Zm0-248.655c-25.339 0-45.938 8.909-61.796 26.73-15.694 17.655-23.54 44.14-23.54 79.451 0 35.313 7.846 62.042 23.54 80.188 15.858 17.983 36.457 26.975 61.796 26.975 25.504 0 46.103-8.992 61.797-26.975 15.858-18.146 23.786-44.875 23.786-80.188 0-35.311-7.928-61.796-23.786-79.451-15.694-17.821-36.293-26.73-61.797-26.73ZM685.888 55.3c0-6.703 3.352-10.054 10.054-10.054h32.614c3.761 0 6.376.817 7.847 2.452 1.472 1.471 2.207 4.005 2.207 7.602v32.614c0 3.76-.735 6.376-2.207 7.848-1.471 1.471-4.086 2.207-7.847 2.207h-32.614c-3.596 0-6.212-.736-7.847-2.207-1.471-1.472-2.207-4.088-2.207-7.848V55.3Zm3.678 336.69V133.28c0-3.432 1.635-5.149 4.904-5.149h35.067c3.434 0 5.151 1.717 5.151 5.149v258.71c0 3.27-1.717 4.905-5.151 4.905H694.47c-3.269 0-4.904-1.635-4.904-4.905Zm144.682-98.089V50.395c0-3.433 1.634-5.149 4.904-5.149h35.313c3.267 0 4.901 1.716 4.901 5.149v77.736h102.509c3.267 0 4.901 1.717 4.901 5.149v25.013c0 3.433-1.634 5.15-4.901 5.15H879.366v130.458c0 24.85 5.722 43.65 17.167 56.401 11.608 12.589 27.629 18.883 48.064 18.883 17.98 0 34.082-2.453 48.307-7.357l7.113-2.697c3.267-1.308 4.901.081 4.901 4.168v24.523c0 2.779-1.634 4.986-4.901 6.62-16.834 6.703-36.944 10.054-60.321 10.054-32.205 0-57.875-10.135-77.001-30.407-18.966-20.272-28.447-47.001-28.447-80.188Z" style="fill:#00001d;fill-rule:nonzero"/><path d="M1420.73 0h-282.108c-18.711 0-36.646 7.43-49.878 20.657-13.223 13.226-20.652 31.165-20.652 49.87v282.109c0 18.705 7.429 36.644 20.652 49.87 13.232 13.227 31.167 20.657 49.878 20.657h282.108c18.702 0 36.637-7.43 49.869-20.657 13.223-13.226 20.652-31.165 20.652-49.87V70.527c0-18.705-7.429-36.644-20.652-49.87C1457.367 7.43 1439.432 0 1420.73 0Zm-39.967 155.395-107.437 141.054c-2.193 2.845-5 5.151-8.222 6.74a23.5228 23.5228 0 0 1-10.353 2.429c-3.566.019-7.095-.775-10.317-2.323-3.213-1.548-6.038-3.808-8.25-6.61l-57.369-73.114a23.5786 23.5786 0 0 1-4.116-8.208c-.822-2.979-1.047-6.092-.668-9.159a23.6816 23.6816 0 0 1 2.897-8.716 23.5576 23.5576 0 0 1 6.003-6.948c4.928-3.834 11.174-5.554 17.366-4.782a23.51 23.51 0 0 1 8.719 2.891c2.69 1.526 5.045 3.567 6.95 6.006l38.315 48.899 88.862-117.545c1.886-2.471 4.242-4.545 6.923-6.106 2.689-1.561 5.65-2.578 8.728-2.993a23.65 23.65 0 0 1 9.215.576c2.997.794 5.813 2.172 8.286 4.056 2.473 1.883 4.54 4.234 6.102 6.919a23.6808 23.6808 0 0 1 2.997 8.729c.415 3.079.216 6.208-.578 9.21-.794 3.003-2.175 5.82-4.053 8.29v.705Z" style="fill:url(#a);fill-rule:nonzero"/><defs><linearGradient id="a" x1="0" x2="1" y1="0" y2="0" gradientTransform="rotate(135.0158 730.8523 314.3741) scale(540.009)" gradientUnits="userSpaceOnUse"><stop offset="0" style="stop-color:#6abe55;stop-opacity:1"/><stop offset="1" style="stop-color:#318f1a;stop-opacity:1"/></linearGradient></defs></svg>